<svg id="Capa_1" data-name="Capa 1" xmlns="http://www.w3.org/2000/svg" viewBox="0 0 43 56"><defs><style>.cls-1{fill:#e9e9e0;}.cls-2{fill:#d9d7ca;}.cls-3{fill:#f00f13;}.cls-4{font-size:12px;fill:#fff;font-family:ArialMT, Arial;}</style></defs><path class="cls-1" d="M37,0H8C7.16,0,6.5.65,6.5,1.93V55c0,.35.65,1,1.46,1H48c.81,0,1.46-.65,1.46-1V13c0-.7-.09-.92-.26-1.09L37.61.26A.87.87,0,0,0,37,0Z" transform="translate(-6.5)"/><polygon class="cls-2" points="31 0.15 31 12 42.85 12 31 0.15"/><path class="cls-3" d="M48,56H8A1.46,1.46,0,0,1,6.5,54.54V39h43V54.54A1.46,1.46,0,0,1,48,56Z" transform="translate(-6.5)"/><path class="cls-3" d="M19.5,19V15a1,1,0,0,1,1-1,1,1,0,0,0,0-2,3,3,0,0,0-3,3v4a2,2,0,0,1-2,2,1,1,0,0,0,0,2,2,2,0,0,1,2,2v4a3,3,0,0,0,3,3,1,1,0,0,0,0-2,1,1,0,0,1-1-1V25a4,4,0,0,0-1.38-3A4,4,0,0,0,19.5,19Z" transform="translate(-6.5)"/><circle class="cls-3" cx="21" cy="18.5" r="1.5"/><path class="cls-3" d="M39.5,21a2,2,0,0,1-2-2V15a3,3,0,0,0-3-3,1,1,0,0,0,0,2,1,1,0,0,1,1,1v4a4,4,0,0,0,1.38,3,4,4,0,0,0-1.38,3v4a1,1,0,0,1-1,1,1,1,0,0,0,0,2,3,3,0,0,0,3-3V25a2,2,0,0,1,2-2,1,1,0,0,0,0-2Z" transform="translate(-6.5)"/><path class="cls-3" d="M27.5,24a1,1,0,0,0-1,1v3a1,1,0,0,0,2,0V25A1,1,0,0,0,27.5,24Z" transform="translate(-6.5)"/><text class="cls-4" transform="translate(12.67 51.74)">RB</text></svg>